<?xml version="1.0" encoding="UTF-8" standalone="no"?><!DOCTYPE svg PUBLIC "-//W3C//DTD SVG 1.1//EN" "http://www.w3.org/Graphics/SVG/1.1/DTD/svg11.dtd"><svg width="100%" height="100%" viewBox="0 0 2250 2250" version="1.1" xmlns="http://www.w3.org/2000/svg" xmlns:xlink="http://www.w3.org/1999/xlink" xml:space="preserve" xmlns:serif="http://www.serif.com/" style="fill-rule:evenodd;clip-rule:evenodd;stroke-linejoin:round;stroke-miterlimit:2;"><path d="M1510.42,1041.67l75.001,-0c-0,-49.495 0,-80.459 0.001,-80.456c-2.6,-18.15 -9.244,-87.84 30.907,-145.208c29.995,-42.855 85.877,-81.632 193.053,-81.632c25.624,0 82.349,0.211 129.26,0.514c3.435,0.227 39.936,0.532 39.936,0.532c9.734,19.179 16.707,29.684 19.342,37.5c-38.543,-0.557 -149.583,-1.046 -188.538,-1.046c-223.831,0 -186.462,186.462 -186.462,186.462l-0,83.334l444.636,-0c1.277,12.394 2.308,24.859 3.09,37.392c-4.253,-0 -33.316,0.105 -37.569,0.108l-1557.31,-0c-1.883,20.237 -2.845,40.737 -2.845,61.458c-0,31.461 2.218,62.413 6.509,92.708l264.781,0c21.428,0 41.978,8.512 57.129,23.664c15.152,15.152 23.664,35.702 23.664,57.129l0,409.724c53.672,28.582 111.735,50.084 172.917,63.241l-0,-478.836l1.453,-14.685l4.25,-13.986l6.884,-12.895l9.357,-11.412l11.411,-9.356l12.895,-6.885l13.986,-4.25l14.685,-1.453l957.009,0l37.739,0c-1.301,12.684 -2.859,24.972 -4.668,37.5l-440.001,0l-0,458.334c-0,297.751 -426.442,335.895 -431.25,336.13c-1.941,0.095 -52.084,1.37 -52.084,1.37c-514.046,-0.439 -931.25,-416.616 -931.25,-929.167c0,-512.821 417.644,-929.167 932.064,-929.167c290.057,0 549.347,132.369 720.347,339.766c9.752,9.409 17.881,19.471 29.247,35.234c-0,0 -44.358,0.141 -47.42,0l-146.738,0c-65.085,0 -116.743,17.1 -157.108,43.968c-98.709,65.704 -130.763,187.305 -130.392,247.468c0.394,64.109 0,146.807 0,166.898l81.25,-0l0,-87.5l20.834,-0l-0,87.5Zm-20.834,229.166l-81.25,0l0,375c0,97.614 -58.709,146.868 -117.991,171.323c-28.003,11.552 -56.012,17.154 -76.633,19.87c0,0 -30.078,190.995 -30.078,190.995c3.48,-0.094 5.817,-0.16 6.204,-0.179c2.703,-0.132 147.594,-13.213 263.115,-83.796c71.762,-43.847 132.467,-110.883 132.467,-214.879c-0,-0 -0,-245.076 0,-458.334l-75,0l-0,47.917l-20.834,0l0,-47.917Zm-243.75,633.334c0,-0 105.782,-0.58 162.5,-58.334c9.804,11.936 14.584,18.75 14.584,18.75c-0,0 -66.421,61.475 -177.084,62.5c-0.227,-12.901 0,-22.916 0,-22.916Zm266.667,-502.084l0,158.334l-22.917,-0l0,-158.334l22.917,0Zm-45.833,377.084c-0,-0 18.133,-12.285 22.916,-68.75c0.411,-55.372 0,-68.75 0,-68.75l22.917,-0l0,70.833c0,0 -6.265,71.601 -33.333,85.417c-7.756,-10.235 -12.5,-18.75 -12.5,-18.75Zm-980.814,-508.334c36.616,181.684 148.346,336.598 301.647,431.46l0,-388.167c0,-11.482 -4.561,-22.493 -12.68,-30.612c-8.119,-8.119 -19.131,-12.681 -30.613,-12.681l-258.354,0Zm1032.09,-674.749c-107.52,-73.722 -237.897,-116.917 -378.363,-116.917c-334.05,-0 -611.045,244.3 -659.242,562.5l890.492,-0c0,-20.064 0.395,-102.647 0,-166.667c-0.417,-67.823 35.836,-204.846 147.113,-278.916Zm-147.113,674.749l-297.995,0c-9.925,0 -19.443,3.943 -26.461,10.961c-7.018,7.018 -10.96,16.536 -10.96,26.461l-0,485.786c33.943,5.294 68.734,8.042 104.166,8.042l41.667,0c0,0 189.583,-0.166 189.583,-156.25l0,-375Zm247.917,-604.166c0,-0 35.88,-29.167 72.917,-29.167l93.75,0l-0,25l-91.667,0c0,0 -31.226,1.622 -58.333,25c-7.285,-8.688 -16.667,-20.833 -16.667,-20.833Zm-127.083,197.916c-0,0 8.849,-99.328 58.333,-145.833c5.623,8.93 8.479,17.905 12.5,22.917c-19.544,15.978 -39.898,53.539 -47.917,122.916c-9.773,-0.091 -22.916,0 -22.916,0Zm450.85,-200l-70.642,0l0,-29.166l53.175,-0c5.949,9.628 11.809,19.432 17.467,29.166Zm-23.767,485.417l0,18.75l-145.833,0l-0,-18.75l145.833,0Zm-216.667,1.042l0,18.75l-145.833,-0l0,-18.75l145.833,-0Zm-1000,-1.042l0,18.75l-181.25,0l0,-18.75l181.25,0Zm570.606,0l-0,18.75l-145.834,0l0,-18.75l145.834,0Zm214.811,1.042l0,18.75l-145.833,-0l-0,-18.75l145.833,-0Zm584.442,17.708l-86.525,0l-0,-18.75l86.961,0c-0.083,6.265 -0.229,12.515 -0.436,18.75Zm-1174.03,52.202c-0,-28.831 -23.372,-52.202 -52.202,-52.202l-74.882,0l0,-18.75l285.417,0l0,18.75l-83.215,0c-28.83,0 -52.202,23.371 -52.202,52.202l0,62.381l-22.916,0l-0,-62.381Zm22.916,129.048l0,143.75l-20.833,0l0,-143.75l20.833,0Zm0,210.417l0,137.5l-20.833,-0l0,-137.5l20.833,-0Z" style="fill:#23479e;"/><path d="M1491.67,864.583c-0,0 8.849,-99.328 58.333,-145.833c5.623,8.93 8.479,17.905 12.5,22.917c-19.544,15.978 -39.898,53.539 -47.917,122.916c-9.773,-0.091 -22.916,0 -22.916,0Zm450.85,-200l-70.642,0l0,-29.166l53.175,-0c5.949,9.628 11.809,19.432 17.467,29.166Zm-23.767,485.417l0,18.75l-145.833,0l-0,-18.75l145.833,0Zm-300,-483.333c0,-0 35.88,-29.167 72.917,-29.167l93.75,-0l-0,25l-91.667,-0c0,-0 -31.226,1.622 -58.333,25c-7.285,-8.688 -16.667,-20.833 -16.667,-20.833Zm83.333,484.375l0,18.75l-145.833,-0l0,-18.75l145.833,-0Zm-429.394,-1.042l-0,18.75l-145.834,0l0,-18.75l145.834,0Zm214.811,1.042l0,18.75l-145.833,-0l-0,-18.75l145.833,-0Zm-785.417,-1.042l0,18.75l-181.25,0l0,-18.75l181.25,0Zm808.334,-108.333l75.001,-0c-0,-49.495 0,-80.459 0.001,-80.456c-2.6,-18.15 -9.244,-87.84 30.907,-145.208c29.995,-42.855 85.877,-81.632 193.053,-81.632c25.624,0 82.349,0.211 129.26,0.514c3.435,0.227 39.936,0.532 39.936,0.532c9.734,19.179 16.707,29.684 19.342,37.5c-38.543,-0.557 -149.583,-1.046 -188.538,-1.046c-223.831,0 -186.462,186.462 -186.462,186.462l-0,83.334l444.636,-0c1.277,12.394 2.308,24.859 3.09,37.392c-4.253,-0 -33.316,0.105 -37.569,0.108l-1557.31,-0c-1.883,20.237 -2.845,40.737 -2.845,61.458c-0,31.461 2.218,62.413 6.509,92.708l264.781,0c21.428,0 41.978,8.512 57.129,23.664c15.152,15.152 23.664,35.702 23.664,57.129l0,409.724c53.672,28.582 111.735,50.084 172.917,63.241l-0,-478.836l1.453,-14.685l4.25,-13.986l6.884,-12.895l9.357,-11.412l11.411,-9.356l12.895,-6.885l13.986,-4.25l14.685,-1.453l957.009,0l37.739,0c-1.301,12.684 -2.859,24.972 -4.668,37.5l-440.001,0l-0,458.334c-0,297.751 -426.442,335.895 -431.25,336.13c-1.941,0.095 -52.084,1.37 -52.084,1.37c-514.046,-0.439 -931.25,-416.616 -931.25,-929.167c0,-512.821 417.644,-929.167 932.064,-929.167c290.057,0 549.347,132.369 720.347,339.766c9.752,9.409 17.881,19.471 29.247,35.234c-0,0 -44.358,0.141 -47.42,0l-146.738,0c-65.085,0 -116.743,17.1 -157.108,43.968c-98.709,65.704 -130.763,187.305 -130.392,247.468c0.394,64.109 0,146.807 0,166.898l81.25,-0l0,-87.5l20.834,-0l-0,87.5Zm-1064.52,14.82c-2.738,-6.366 -3.69,-13.438 -2.63,-20.436c50.916,-336.155 343.419,-594.384 696.319,-594.384c148.34,-0 286.022,45.634 399.57,123.489c4.712,3.231 8.548,7.439 11.311,12.25c40.03,-19.614 88.071,-31.573 145.369,-31.573l113.586,0c-163.93,-183.992 -402.993,-300 -669.022,-300c-493.691,0 -894.564,399.511 -894.564,891.667c0,491.736 400.189,890.985 893.3,891.666c1.03,-0.026 3.575,-0.09 7.008,-0.177c-0.068,-2.531 0.123,-5.029 0.551,-7.463l0.738,-4.687c4.188,-26.593 22.774,-144.614 27.914,-177.256l-35.761,0c-37.398,0 -74.118,-2.902 -109.945,-8.49c-7.212,-1.125 -13.675,-4.258 -18.857,-8.777c-6.567,2.398 -13.754,2.941 -20.749,1.437c-64.628,-13.899 -125.963,-36.611 -182.658,-66.803c-7.333,-3.905 -13.016,-10.043 -16.392,-17.319c-7.992,0.744 -16.156,-1.082 -23.214,-5.45c-161.984,-100.234 -279.986,-263.964 -318.676,-455.939c-1.411,-7.001 -0.779,-14.169 1.695,-20.697c-4.433,-5.238 -7.469,-11.734 -8.491,-18.954c-4.534,-32.013 -6.879,-64.72 -6.879,-97.966c-0,-21.893 1.017,-43.551 3.006,-64.932c0.671,-7.216 3.357,-13.796 7.471,-19.206Zm39.959,214.346c36.616,181.684 148.346,336.598 301.647,431.46l0,-388.167c0,-11.482 -4.561,-22.493 -12.68,-30.612c-8.119,-8.119 -19.131,-12.681 -30.613,-12.681l-258.354,0Zm1032.09,-674.749c-107.52,-73.722 -237.897,-116.917 -378.363,-116.917c-334.05,-0 -611.045,244.3 -659.242,562.5l890.492,-0c0,-20.064 0.395,-102.647 0,-166.667c-0.417,-67.823 35.836,-204.846 147.113,-278.916Zm-147.113,674.749l-297.995,0c-9.925,0 -19.443,3.943 -26.461,10.961c-7.018,7.018 -10.96,16.536 -10.96,26.461l-0,485.786c33.943,5.294 68.734,8.042 104.166,8.042l41.667,0c0,0 189.583,-0.166 189.583,-156.25l0,-375Zm118.75,0l-81.25,0l0,375c0,97.614 -58.709,146.868 -117.991,171.323c-28.003,11.552 -56.012,17.154 -76.633,19.87c0,0 -30.078,190.995 -30.078,190.995c3.48,-0.094 5.817,-0.16 6.204,-0.179c2.703,-0.132 147.594,-13.213 263.115,-83.796c71.762,-43.847 132.467,-110.883 132.467,-214.879c-0,-0 -0,-245.076 0,-458.334l-75,0l-0,47.917l-20.834,0l0,-47.917Zm-243.75,633.334c0,-0 105.782,-0.58 162.5,-58.334c9.804,11.936 14.584,18.75 14.584,18.75c-0,0 -66.421,61.475 -177.084,62.5c-0.227,-12.901 0,-22.916 0,-22.916Zm220.834,-125c-0,-0 18.133,-12.285 22.916,-68.75c0.411,-55.372 0,-68.75 0,-68.75l22.917,-0l0,70.833c0,0 -6.265,71.601 -33.333,85.417c-7.756,-10.235 -12.5,-18.75 -12.5,-18.75Zm45.833,-377.084l0,158.334l-22.917,-0l0,-158.334l22.917,0Zm559.442,-233.333l-86.525,0l-0,-18.75l86.961,-0c-0.083,6.265 -0.229,12.515 -0.436,18.75Zm-1174.03,52.202c-0,-28.831 -23.372,-52.202 -52.202,-52.202l-74.882,0l0,-18.75l285.417,-0l0,18.75l-83.215,0c-28.83,0 -52.202,23.371 -52.202,52.202l0,62.381l-22.916,0l-0,-62.381Zm22.916,129.048l0,143.75l-20.833,0l0,-143.75l20.833,0Zm0,210.417l0,137.5l-20.833,-0l0,-137.5l20.833,-0Z" style="fill:#23479e;"/></svg>